<svg width="46" height="40" viewBox="0 0 46 40" fill="none" xmlns="http://www.w3.org/2000/svg">
<path id="header logo" d="M33.038 0C39.9591 0 45.5696 5.40541 45.5696 12.973C45.5696 28.1081 28.481 36.7568 22.7848 40C18.2789 37.4346 6.64462 31.4867 1.97886 21.6216H12.6825L14.8101 18.2566L21.6456 29.0675L26.3534 21.6216H34.1772V17.2973H23.7732L21.6456 20.6623L14.8101 9.85157L10.1024 17.2973L0.479028 17.2971C0.169017 15.9191 0 14.4782 0 12.973C0 5.40541 5.6962 0 12.5316 0C16.7696 0 20.5063 2.16216 22.7848 4.32432C25.0633 2.16216 28.8 0 33.038 0Z" fill="#0085FF"/>
</svg>
